<svg width="400" height="400" viewBox="0 0 400 400" fill="none" xmlns="http://www.w3.org/2000/svg">
<rect width="400" height="400" fill="#F5F5F5"/>
<rect width="400" height="400" fill="white"/>
<path d="M20.16 120.36V204H9.24V120.36H20.16ZM94.6913 144.84C94.6913 151.8 92.2913 157.6 87.4913 162.24C82.7713 166.8 75.5313 169.08 65.7713 169.08H49.6913V204H38.7713V120.36H65.7713C75.2113 120.36 82.3713 122.64 87.2513 127.2C92.2113 131.76 94.6913 137.64 94.6913 144.84ZM65.7713 160.08C71.8513 160.08 76.3313 158.76 79.2113 156.12C82.0913 153.48 83.5313 149.72 83.5313 144.84C83.5313 134.52 77.6113 129.36 65.7713 129.36H49.6913V160.08H65.7713ZM174.023 204H163.103L119.183 137.4V204H108.263V120.24H119.183L163.103 186.72V120.24H174.023V204ZM203.318 120.36V173.28C203.318 180.72 205.118 186.24 208.718 189.84C212.398 193.44 217.478 195.24 223.958 195.24C230.358 195.24 235.358 193.44 238.958 189.84C242.638 186.24 244.478 180.72 244.478 173.28V120.36H255.398V173.16C255.398 180.12 253.998 186 251.198 190.8C248.398 195.52 244.598 199.04 239.798 201.36C235.078 203.68 229.758 204.84 223.838 204.84C217.918 204.84 212.558 203.68 207.758 201.36C203.038 199.04 199.278 195.52 196.478 190.8C193.758 186 192.398 180.12 192.398 173.16V120.36H203.318Z" fill="black"/>
<path d="M32.52 282.08C27.48 282.08 22.96 281.24 18.96 279.56C14.96 277.8 11.8 275.4 9.48 272.36C7.16 269.24 5.88 265.68 5.64 261.68H16.92C17.24 264.96 18.76 267.64 21.48 269.72C24.28 271.8 27.92 272.84 32.4 272.84C36.56 272.84 39.84 271.92 42.24 270.08C44.64 268.24 45.84 265.92 45.84 263.12C45.84 260.24 44.56 258.12 42 256.76C39.44 255.32 35.48 253.92 30.12 252.56C25.24 251.28 21.24 250 18.12 248.72C15.08 247.36 12.44 245.4 10.2 242.84C8.04 240.2 6.96 236.76 6.96 232.52C6.96 229.16 7.96 226.08 9.96 223.28C11.96 220.48 14.8 218.28 18.48 216.68C22.16 215 26.36 214.16 31.08 214.16C38.36 214.16 44.24 216 48.72 219.68C53.2 223.36 55.6 228.4 55.92 234.8H45C44.76 231.36 43.36 228.6 40.8 226.52C38.32 224.44 34.96 223.4 30.72 223.4C26.8 223.4 23.68 224.24 21.36 225.92C19.04 227.6 17.88 229.8 17.88 232.52C17.88 234.68 18.56 236.48 19.92 237.92C21.36 239.28 23.12 240.4 25.2 241.28C27.36 242.08 30.32 243 34.08 244.04C38.8 245.32 42.64 246.6 45.6 247.88C48.56 249.08 51.08 250.92 53.16 253.4C55.32 255.88 56.44 259.12 56.52 263.12C56.52 266.72 55.52 269.96 53.52 272.84C51.52 275.72 48.68 278 45 279.68C41.4 281.28 37.24 282.08 32.52 282.08ZM82.8553 227.36C85.0153 223.6 88.2153 220.48 92.4553 218C96.7753 215.44 101.775 214.16 107.455 214.16C113.295 214.16 118.575 215.56 123.295 218.36C128.095 221.16 131.855 225.12 134.575 230.24C137.295 235.28 138.655 241.16 138.655 247.88C138.655 254.52 137.295 260.44 134.575 265.64C131.855 270.84 128.095 274.88 123.295 277.76C118.575 280.64 113.295 282.08 107.455 282.08C101.855 282.08 96.8953 280.84 92.5753 278.36C88.3353 275.8 85.0953 272.64 82.8553 268.88V312.2H71.9353V215.24H82.8553V227.36ZM127.495 247.88C127.495 242.92 126.495 238.6 124.495 234.92C122.495 231.24 119.775 228.44 116.335 226.52C112.975 224.6 109.255 223.64 105.175 223.64C101.175 223.64 97.4553 224.64 94.0153 226.64C90.6553 228.56 87.9353 231.4 85.8553 235.16C83.8553 238.84 82.8553 243.12 82.8553 248C82.8553 252.96 83.8553 257.32 85.8553 261.08C87.9353 264.76 90.6553 267.6 94.0153 269.6C97.4553 271.52 101.175 272.48 105.175 272.48C109.255 272.48 112.975 271.52 116.335 269.6C119.775 267.6 122.495 264.76 124.495 261.08C126.495 257.32 127.495 252.92 127.495 247.88ZM148.949 247.88C148.949 241.16 150.309 235.28 153.029 230.24C155.749 225.12 159.469 221.16 164.189 218.36C168.989 215.56 174.309 214.16 180.149 214.16C185.909 214.16 190.909 215.4 195.149 217.88C199.389 220.36 202.549 223.48 204.629 227.24V215.24H215.669V281H204.629V268.76C202.469 272.6 199.229 275.8 194.909 278.36C190.669 280.84 185.709 282.08 180.029 282.08C174.189 282.08 168.909 280.64 164.189 277.76C159.469 274.88 155.749 270.84 153.029 265.64C150.309 260.44 148.949 254.52 148.949 247.88ZM204.629 248C204.629 243.04 203.629 238.72 201.629 235.04C199.629 231.36 196.909 228.56 193.469 226.64C190.109 224.64 186.389 223.64 182.309 223.64C178.229 223.64 174.509 224.6 171.149 226.52C167.789 228.44 165.109 231.24 163.109 234.92C161.109 238.6 160.109 242.92 160.109 247.88C160.109 252.92 161.109 257.32 163.109 261.08C165.109 264.76 167.789 267.6 171.149 269.6C174.509 271.52 178.229 272.48 182.309 272.48C186.389 272.48 190.109 271.52 193.469 269.6C196.909 267.6 199.629 264.76 201.629 261.08C203.629 257.32 204.629 252.96 204.629 248ZM230.043 248C230.043 241.2 231.403 235.28 234.123 230.24C236.843 225.12 240.603 221.16 245.403 218.36C250.283 215.56 255.843 214.16 262.083 214.16C270.163 214.16 276.803 216.12 282.003 220.04C287.283 223.96 290.763 229.4 292.443 236.36H280.683C279.563 232.36 277.363 229.2 274.083 226.88C270.883 224.56 266.883 223.4 262.083 223.4C255.843 223.4 250.803 225.56 246.963 229.88C243.123 234.12 241.203 240.16 241.203 248C241.203 255.92 243.123 262.04 246.963 266.36C250.803 270.68 255.843 272.84 262.083 272.84C266.883 272.84 270.883 271.72 274.083 269.48C277.283 267.24 279.483 264.04 280.683 259.88H292.443C290.683 266.6 287.163 272 281.883 276.08C276.603 280.08 270.003 282.08 262.083 282.08C255.843 282.08 250.283 280.68 245.403 277.88C240.603 275.08 236.843 271.12 234.123 266C231.403 260.88 230.043 254.88 230.043 248ZM367.013 245.6C367.013 247.68 366.893 249.88 366.653 252.2H314.093C314.493 258.68 316.693 263.76 320.693 267.44C324.773 271.04 329.693 272.84 335.453 272.84C340.173 272.84 344.093 271.76 347.213 269.6C350.413 267.36 352.653 264.4 353.933 260.72H365.693C363.933 267.04 360.413 272.2 355.133 276.2C349.853 280.12 343.293 282.08 335.453 282.08C329.213 282.08 323.613 280.68 318.653 277.88C313.773 275.08 309.933 271.12 307.133 266C304.333 260.8 302.933 254.8 302.933 248C302.933 241.2 304.293 235.24 307.013 230.12C309.733 225 313.533 221.08 318.413 218.36C323.373 215.56 329.053 214.16 335.453 214.16C341.693 214.16 347.213 215.52 352.013 218.24C356.813 220.96 360.493 224.72 363.053 229.52C365.693 234.24 367.013 239.6 367.013 245.6ZM355.733 243.32C355.733 239.16 354.813 235.6 352.973 232.64C351.133 229.6 348.613 227.32 345.413 225.8C342.293 224.2 338.813 223.4 334.973 223.4C329.453 223.4 324.733 225.16 320.813 228.68C316.973 232.2 314.773 237.08 314.213 243.32H355.733Z" fill="black"/>
</svg>
